<svg xmlns="http://www.w3.org/2000/svg" viewBox="0 0 300 300">
  <defs>
    <linearGradient id="bg" x1="0" y1="0" x2="1" y2="1">
      <stop offset="0" stop-color="#2b1218"/>
      <stop offset="1" stop-color="#12161f"/>
    </linearGradient>
    <linearGradient id="rim" x1="0" y1="0" x2="0" y2="1">
      <stop offset="0" stop-color="#e04a5f"/>
      <stop offset="1" stop-color="#8a1f2d"/>
    </linearGradient>
  </defs>
  <rect width="300" height="300" fill="url(#bg)"/>
  <!-- skyline -->
  <g fill="#1d2430" opacity="0.9">
    <rect x="10" y="150" width="30" height="150"/>
    <rect x="48" y="110" width="26" height="190"/>
    <rect x="82" y="170" width="34" height="130"/>
    <rect x="196" y="130" width="28" height="170"/>
    <rect x="232" y="90" width="24" height="210"/>
    <rect x="262" y="160" width="30" height="140"/>
  </g>
  <g fill="#e8c66a" opacity="0.35">
    <rect x="54" y="122" width="5" height="5"/><rect x="63" y="140" width="5" height="5"/>
    <rect x="238" y="104" width="5" height="5"/><rect x="238" y="122" width="5" height="5"/>
    <rect x="247" y="140" width="5" height="5"/>
  </g>
  <!-- bust silhouette -->
  <path d="M150 62c-26 0-42 20-42 46 0 18 8 33 19 40l-4 14c-30 8-53 24-60 48-4 14 2 30 2 30h170s6-16 2-30c-7-24-30-40-60-48l-4-14c11-7 19-22 19-40 0-26-16-46-42-46z" fill="#0b0e14"/>
  <path d="M150 62c-26 0-42 20-42 46 0 3 0 6 1 9 6-16 22-27 41-27s35 11 41 27c1-3 1-6 1-9 0-26-16-46-42-46z" fill="url(#rim)" opacity="0.5"/>
  <!-- shirt + tie -->
  <path d="M128 166l22 20 22-20 10 8-32 30-32-30z" fill="#e9e2d0"/>
  <path d="M150 190l-9 12 9 42 9-42z" fill="url(#rim)"/>
  <!-- lapels -->
  <path d="M118 172l32 30-44 38-16-30z" fill="#151a24"/>
  <path d="M182 172l-32 30 44 38 16-30z" fill="#151a24"/>
  <!-- pocket square -->
  <path d="M190 232l14-6 4 12-14 5z" fill="#e9e2d0" opacity="0.9"/>
</svg>
