<svg xmlns="http://www.w3.org/2000/svg" viewBox="0 0 300 300">
  <defs>
    <linearGradient id="bg" x1="0" y1="0" x2="1" y2="1">
      <stop offset="0" stop-color="#3a1410"/>
      <stop offset="1" stop-color="#131018"/>
    </linearGradient>
    <linearGradient id="rim" x1="0" y1="0" x2="0" y2="1">
      <stop offset="0" stop-color="#f0a05a"/>
      <stop offset="1" stop-color="#7a2410"/>
    </linearGradient>
    <radialGradient id="core" cx="0.5" cy="0.5" r="0.5">
      <stop offset="0" stop-color="#bfe9ff"/>
      <stop offset="0.55" stop-color="#57c2f0"/>
      <stop offset="1" stop-color="#57c2f0" stop-opacity="0"/>
    </radialGradient>
  </defs>
  <rect width="300" height="300" fill="url(#bg)"/>
  <!-- circuitos -->
  <g stroke="#f0a05a" stroke-width="2" opacity="0.25" fill="none">
    <path d="M20 70h44l14 14v30"/>
    <path d="M280 60h-40l-16 16"/>
    <path d="M268 210h-30l-12-12"/>
    <circle cx="78" cy="114" r="3.4" fill="#f0a05a" stroke="none"/>
    <circle cx="224" cy="76" r="3.4" fill="#f0a05a" stroke="none"/>
    <circle cx="226" cy="198" r="3.4" fill="#f0a05a" stroke="none"/>
  </g>
  <!-- bust silhouette -->
  <path d="M150 62c-26 0-42 20-42 46 0 18 8 33 19 40l-4 14c-30 8-53 24-60 48-4 14 2 30 2 30h170s6-16 2-30c-7-24-30-40-60-48l-4-14c11-7 19-22 19-40 0-26-16-46-42-46z" fill="#0b0e14"/>
  <path d="M150 62c-26 0-42 20-42 46 0 3 0 6 1 9 6-16 22-27 41-27s35 11 41 27c1-3 1-6 1-9 0-26-16-46-42-46z" fill="url(#rim)" opacity="0.5"/>
  <!-- perilla sugerida -->
  <path d="M138 140c4 8 20 8 24 0l-4 12c-3 4-13 4-16 0z" fill="url(#rim)" opacity="0.65"/>
  <!-- camiseta con reactor -->
  <path d="M116 174l34 24 34-24 10 10-44 32-44-32z" fill="#1a1520"/>
  <circle cx="150" cy="226" r="20" fill="url(#core)"/>
  <circle cx="150" cy="226" r="9" fill="#eaf7ff"/>
  <g stroke="#57c2f0" stroke-width="2" opacity="0.8" fill="none">
    <circle cx="150" cy="226" r="14"/>
  </g>
</svg>
